<svg xmlns="http://www.w3.org/2000/svg" viewBox="0 0 920 900" width="920" height="900" role="img" aria-labelledby="title desc">
  <title id="title">Entropy pilot throughput radar</title>
  <desc id="desc">Radar chart of normalized log10 throughput for the Darby normal-preset Pilot run.</desc>
  <defs><style>
    .bg { fill: #f6f3ec; }
    .grid { fill: none; stroke: #d6c8b6; stroke-width: 1.2; }
    .axis { stroke: #b9a58f; stroke-width: 1; }
    .shape { fill: rgba(176, 76, 47, 0.20); stroke: #b04c2f; stroke-width: 3; }
    .dot { fill: #8f311d; }
    .title { fill: #2b2118; font: 700 30px Georgia, serif; }
    .subtitle { fill: #5d4d3d; font: 15px Georgia, serif; }
    .ring { fill: #6b5a47; font: 12px Georgia, serif; }
    .num { fill: #2f2418; font: 700 14px Georgia, serif; }
    .legend { fill: #2f2418; font: 14px Georgia, serif; }
    .foot { fill: #6b5a47; font: 13px Georgia, serif; }
  </style></defs>
  <rect class="bg" x="0" y="0" width="920" height="900" rx="22" />
  <text class="title" x="460" y="44" text-anchor="middle">Pilot Throughput Radar</text>
  <text class="subtitle" x="460" y="70" text-anchor="middle">Darby ARM64, Pilot normal preset, normalized log10(MW/s)</text>
  <polygon class="grid" points="460.0,268.0 493.2,274.2 522.0,292.0 542.4,319.0 551.6,351.5 548.5,385.2 533.4,415.4 508.4,438.2 476.9,450.4 443.1,450.4 411.6,438.2 386.6,415.4 371.5,385.2 368.4,351.5 377.6,319.0 398.0,292.0 426.8,274.2" />
  <polygon class="grid" points="460.0,231.0 506.6,239.7 546.9,264.7 575.5,302.5 588.4,348.1 584.1,395.3 562.9,437.7 527.9,469.7 483.7,486.8 436.3,486.8 392.1,469.7 357.1,437.7 335.9,395.3 331.6,348.1 344.5,302.5 373.1,264.7 413.4,239.7" />
  <polygon class="grid" points="460.0,194.0 520.0,205.2 571.8,237.3 608.6,286.0 625.3,344.7 619.7,405.4 592.5,460.0 547.4,501.1 490.5,523.2 429.5,523.2 372.6,501.1 327.5,460.0 300.3,405.4 294.7,344.7 311.4,286.0 348.2,237.3 400.0,205.2" />
  <polygon class="grid" points="460.0,157.0 533.3,170.7 596.8,210.0 641.7,269.5 662.1,341.3 655.3,415.6 622.0,482.3 566.9,532.6 497.3,559.5 422.7,559.5 353.1,532.6 298.0,482.3 264.7,415.6 257.9,341.3 278.3,269.5 323.2,210.0 386.7,170.7" />
  <polygon class="grid" points="460.0,120.0 546.7,136.2 621.7,182.6 674.8,253.0 699.0,337.9 690.8,425.7 651.5,504.6 586.3,564.1 504.1,595.9 415.9,595.9 333.7,564.1 268.5,504.6 229.2,425.7 221.0,337.9 245.2,253.0 298.3,182.6 373.3,136.2" />
  <text class="ring" x="460" y="260.0" text-anchor="middle">20%</text>
  <text class="ring" x="460" y="223.0" text-anchor="middle">40%</text>
  <text class="ring" x="460" y="186.0" text-anchor="middle">60%</text>
  <text class="ring" x="460" y="149.0" text-anchor="middle">80%</text>
  <text class="ring" x="460" y="112.0" text-anchor="middle">100%</text>
  <line class="axis" x1="460" y1="360" x2="460.0" y2="120.0" />
  <text class="num" x="460.0" y="92.0" text-anchor="middle">1</text>
  <line class="axis" x1="460" y1="360" x2="546.7" y2="136.2" />
  <text class="num" x="556.8" y="110.1" text-anchor="middle">2</text>
  <line class="axis" x1="460" y1="360" x2="621.7" y2="182.6" />
  <text class="num" x="640.6" y="161.9" text-anchor="middle">3</text>
  <line class="axis" x1="460" y1="360" x2="674.8" y2="253.0" />
  <text class="num" x="699.9" y="240.5" text-anchor="middle">4</text>
  <line class="axis" x1="460" y1="360" x2="699.0" y2="337.9" />
  <text class="num" x="726.9" y="335.3" text-anchor="middle">5</text>
  <line class="axis" x1="460" y1="360" x2="690.8" y2="425.7" />
  <text class="num" x="717.8" y="433.3" text-anchor="middle">6</text>
  <line class="axis" x1="460" y1="360" x2="651.5" y2="504.6" />
  <text class="num" x="673.9" y="521.5" text-anchor="middle">7</text>
  <line class="axis" x1="460" y1="360" x2="586.3" y2="564.1" />
  <text class="num" x="601.1" y="587.9" text-anchor="middle">8</text>
  <line class="axis" x1="460" y1="360" x2="504.1" y2="595.9" />
  <text class="num" x="509.2" y="623.4" text-anchor="middle">9</text>
  <line class="axis" x1="460" y1="360" x2="415.9" y2="595.9" />
  <text class="num" x="410.8" y="623.4" text-anchor="middle">10</text>
  <line class="axis" x1="460" y1="360" x2="333.7" y2="564.1" />
  <text class="num" x="318.9" y="587.9" text-anchor="middle">11</text>
  <line class="axis" x1="460" y1="360" x2="268.5" y2="504.6" />
  <text class="num" x="246.1" y="521.5" text-anchor="middle">12</text>
  <line class="axis" x1="460" y1="360" x2="229.2" y2="425.7" />
  <text class="num" x="202.2" y="433.3" text-anchor="middle">13</text>
  <line class="axis" x1="460" y1="360" x2="221.0" y2="337.9" />
  <text class="num" x="193.1" y="335.3" text-anchor="middle">14</text>
  <line class="axis" x1="460" y1="360" x2="245.2" y2="253.0" />
  <text class="num" x="220.1" y="240.5" text-anchor="middle">15</text>
  <line class="axis" x1="460" y1="360" x2="298.3" y2="182.6" />
  <text class="num" x="279.4" y="161.9" text-anchor="middle">16</text>
  <line class="axis" x1="460" y1="360" x2="373.3" y2="136.2" />
  <text class="num" x="363.2" y="110.1" text-anchor="middle">17</text>
  <polygon class="shape" points="460.0,189.7 530.1,179.2 591.6,215.7 619.3,280.7 649.9,342.4 621.0,405.8 593.5,460.8 543.8,495.4 492.7,534.9 427.7,532.7 374.1,498.7 331.0,457.4 307.5,403.4 318.6,346.9 410.8,335.5 298.3,182.7 373.3,136.2" />
  <circle class="dot" cx="460.0" cy="189.7" r="4" />
  <circle class="dot" cx="530.1" cy="179.2" r="4" />
  <circle class="dot" cx="591.6" cy="215.7" r="4" />
  <circle class="dot" cx="619.3" cy="280.7" r="4" />
  <circle class="dot" cx="649.9" cy="342.4" r="4" />
  <circle class="dot" cx="621.0" cy="405.8" r="4" />
  <circle class="dot" cx="593.5" cy="460.8" r="4" />
  <circle class="dot" cx="543.8" cy="495.4" r="4" />
  <circle class="dot" cx="492.7" cy="534.9" r="4" />
  <circle class="dot" cx="427.7" cy="532.7" r="4" />
  <circle class="dot" cx="374.1" cy="498.7" r="4" />
  <circle class="dot" cx="331.0" cy="457.4" r="4" />
  <circle class="dot" cx="307.5" cy="403.4" r="4" />
  <circle class="dot" cx="318.6" cy="346.9" r="4" />
  <circle class="dot" cx="410.8" cy="335.5" r="4" />
  <circle class="dot" cx="298.3" cy="182.7" r="4" />
  <circle class="dot" cx="373.3" cy="136.2" r="4" />
  <text class="legend" x="90" y="640">1. MT19937 (211.2 MW/s)</text>
  <text class="legend" x="90" y="664">2. Xorshift64 (671 MW/s)</text>
  <text class="legend" x="90" y="688">3. Xorshift32 (716.6 MW/s)</text>
  <text class="legend" x="90" y="712">4. SysV rand() (308 MW/s)</text>
  <text class="legend" x="90" y="736">5. SysV mrand48() (573.3 MW/s)</text>
  <text class="legend" x="90" y="760">6. BSD random() (183.2 MW/s)</text>
  <text class="legend" x="90" y="784">7. glibc rand/random() (182.6 MW/s)</text>
  <text class="legend" x="90" y="808">8. FreeBSD rand_r() (123.3 MW/s)</text>
  <text class="legend" x="90" y="832">9. Windows CRT rand() (307.1 MW/s)</text>
  <text class="legend" x="390" y="640">10. Windows VB6 Rnd() (274.7 MW/s)</text>
  <text class="legend" x="390" y="664">11. .NET Random(seed) (149.4 MW/s)</text>
  <text class="legend" x="390" y="688">12. ANSI C LCG (138.4 MW/s)</text>
  <text class="legend" x="390" y="712">13. MINSTD (119.1 MW/s)</text>
  <text class="legend" x="390" y="736">14. AES-128-CTR (53.11 MW/s)</text>
  <text class="legend" x="390" y="760">15. CtrDrbgAes256 (0.7569 MW/s)</text>
  <text class="legend" x="390" y="784">16. Constant (6362 MW/s)</text>
  <text class="legend" x="390" y="808">17. Counter (6374 MW/s)</text>
  <text class="foot" x="460" y="872" text-anchor="middle">Inner radius corresponds to the slowest measured generator (0.7569 MW/s); outer radius to the fastest (6374 MW/s).</text>
</svg>
