<svg xmlns="http://www.w3.org/2000/svg" width="900" height="900" viewBox="0 0 900 900">
<rect width="100%" height="100%" fill="#f6f1e8"/>
<!-- grid rings at r=105,150,195,240,285 — 12 spokes, 30° apart -->
<g stroke="#d8cdb8" fill="none">
<polygon points="450.0,345.0 502.5,359.1 540.9,397.5 555.0,450.0 540.9,502.5 502.5,540.9 450.0,555.0 397.5,540.9 359.1,502.5 345.0,450.0 359.1,397.5 397.5,359.1" stroke-width="1"/>
<polygon points="450.0,300.0 525.0,320.1 579.9,375.0 600.0,450.0 579.9,525.0 525.0,579.9 450.0,600.0 375.0,579.9 320.1,525.0 300.0,450.0 320.1,375.0 375.0,320.1" stroke-width="1"/>
<polygon points="450.0,255.0 547.5,281.1 618.9,352.5 645.0,450.0 618.9,547.5 547.5,618.9 450.0,645.0 352.5,618.9 281.1,547.5 255.0,450.0 281.1,352.5 352.5,281.1" stroke-width="1"/>
<polygon points="450.0,210.0 570.0,242.2 657.8,330.0 690.0,450.0 657.8,570.0 570.0,657.8 450.0,690.0 330.0,657.8 242.2,570.0 210.0,450.0 242.2,330.0 330.0,242.2" stroke-width="1"/>
<polygon points="450.0,165.0 592.5,203.2 696.8,307.5 735.0,450.0 696.8,592.5 592.5,696.8 450.0,735.0 307.5,696.8 203.2,592.5 165.0,450.0 203.2,307.5 307.5,203.2" stroke-width="1"/>
</g>
<!-- spokes -->
<g stroke="#b8aa90" stroke-width="1">
<line x1="450" y1="450" x2="450.0" y2="150.0"/>
<line x1="450" y1="450" x2="600.0" y2="190.2"/>
<line x1="450" y1="450" x2="709.8" y2="300.0"/>
<line x1="450" y1="450" x2="750.0" y2="450.0"/>
<line x1="450" y1="450" x2="709.8" y2="600.0"/>
<line x1="450" y1="450" x2="600.0" y2="709.8"/>
<line x1="450" y1="450" x2="450.0" y2="750.0"/>
<line x1="450" y1="450" x2="300.0" y2="709.8"/>
<line x1="450" y1="450" x2="190.2" y2="600.0"/>
<line x1="450" y1="450" x2="150.0" y2="450.0"/>
<line x1="450" y1="450" x2="190.2" y2="300.0"/>
<line x1="450" y1="450" x2="300.0" y2="190.2"/>
</g>
<!-- data polygon: JSF64 SFC64 Xoshiro256** Xoroshiro128** PCG32 WyRand PCG64 Squidward ChaCha20 SpongeBob Hash_DRBG HMAC_DRBG -->
<!-- radii (log-normalized same scale as original): 249.1 247.9 248.3 237.7 238.9 274.9 235.8 198.4 188.6 159.8 109.8 70.1 -->
<polygon points="450.0,200.9 574.0,235.3 665.0,325.9 687.7,450.0 656.9,569.4 587.4,688.1 450.0,685.8 350.8,621.8 286.7,544.3 290.2,450.0 354.9,395.1 414.9,389.3" fill="#3c6bb855" stroke="#1b4b9f" stroke-width="3"/>
<g fill="#1b4b9f">
<circle cx="450.0" cy="200.9" r="4.5"/>
<circle cx="574.0" cy="235.3" r="4.5"/>
<circle cx="665.0" cy="325.9" r="4.5"/>
<circle cx="687.7" cy="450.0" r="4.5"/>
<circle cx="656.9" cy="569.4" r="4.5"/>
<circle cx="587.4" cy="688.1" r="4.5"/>
<circle cx="450.0" cy="685.8" r="4.5"/>
<circle cx="350.8" cy="621.8" r="4.5"/>
<circle cx="286.7" cy="544.3" r="4.5"/>
<circle cx="290.2" cy="450.0" r="4.5"/>
<circle cx="354.9" cy="395.1" r="4.5"/>
<circle cx="414.9" cy="389.3" r="4.5"/>
</g>
<!-- labels -->
<g font-family="Georgia, serif" font-size="17" fill="#3f3426">
<text x="450.0" y="108.0" text-anchor="middle">JSF64</text>
<text x="450.0" y="126.0" text-anchor="middle" font-size="13" fill="#7a6850">1317 MW/s</text>
<text x="618.0" y="166.2" text-anchor="start">SFC64</text>
<text x="618.0" y="184.2" text-anchor="start" font-size="13" fill="#7a6850">1266 MW/s</text>
<text x="731.8" y="280.0" text-anchor="start">Xoshiro256**</text>
<text x="731.8" y="298.0" text-anchor="start" font-size="13" fill="#7a6850">1282 MW/s</text>
<text x="758.0" y="440.0" text-anchor="start">Xoroshiro128**</text>
<text x="758.0" y="458.0" text-anchor="start" font-size="13" fill="#7a6850">898.1 MW/s</text>
<text x="731.8" y="614.0" text-anchor="start">PCG32</text>
<text x="731.8" y="632.0" text-anchor="start" font-size="13" fill="#7a6850">934.3 MW/s</text>
<text x="618.0" y="725.8" text-anchor="start">WyRand</text>
<text x="618.0" y="743.8" text-anchor="start" font-size="13" fill="#7a6850">3134 MW/s</text>
<text x="450.0" y="770.0" text-anchor="middle">PCG64</text>
<text x="450.0" y="788.0" text-anchor="middle" font-size="13" fill="#7a6850">843.4 MW/s</text>
<text x="282.0" y="725.8" text-anchor="end">Squidward</text>
<text x="282.0" y="743.8" text-anchor="end" font-size="13" fill="#7a6850">239.9 MW/s</text>
<text x="168.2" y="607.0" text-anchor="end">ChaCha20</text>
<text x="168.2" y="625.0" text-anchor="end" font-size="13" fill="#7a6850">172.2 MW/s</text>
<text x="142.0" y="440.0" text-anchor="end">SpongeBob</text>
<text x="142.0" y="458.0" text-anchor="end" font-size="13" fill="#7a6850">65.54 MW/s</text>
<text x="168.2" y="280.0" text-anchor="end">Hash_DRBG</text>
<text x="168.2" y="298.0" text-anchor="end" font-size="13" fill="#7a6850">12.21 MW/s</text>
<text x="282.0" y="162.2" text-anchor="end">HMAC_DRBG</text>
<text x="282.0" y="180.2" text-anchor="end" font-size="13" fill="#7a6850">3.214 MW/s</text>
</g>
<text x="450" y="52" text-anchor="middle" font-family="Georgia, serif" font-size="24" fill="#2f2418">Pilot Throughput — New Generators (log-normalized)</text>
<text x="450" y="78" text-anchor="middle" font-family="Georgia, serif" font-size="15" fill="#6f5d46">Dyson · Apple Silicon aarch64 · pilot-bench normal preset</text>
</svg>
