<svg xmlns="http://www.w3.org/2000/svg" width="900" height="900" viewBox="0 0 900 900">
<rect width="100%" height="100%" fill="#f6f1e8"/>
<g stroke="#d8cdb8" fill="none">
<polygon points="450.0,345.0 492.7,354.1 528.0,379.7 549.9,417.6 554.4,461.0 540.9,502.5 511.7,534.9 471.8,552.7 428.2,552.7 388.3,534.9 359.1,502.5 345.6,461.0 350.1,417.6 372.0,379.7 407.3,354.1" stroke-width="1"/>
<polygon points="450.0,300.0 511.0,313.0 561.5,349.6 592.7,403.6 599.2,465.7 579.9,525.0 538.2,571.4 481.2,596.7 418.8,596.7 361.8,571.4 320.1,525.0 300.8,465.7 307.3,403.6 338.5,349.6 389.0,313.0" stroke-width="1"/>
<polygon points="450.0,255.0 529.3,271.9 594.9,319.5 635.5,389.7 643.9,470.4 618.9,547.5 564.6,607.8 490.5,640.7 409.5,640.7 335.4,607.8 281.1,547.5 256.1,470.4 264.5,389.7 305.1,319.5 370.7,271.9" stroke-width="1"/>
<polygon points="450.0,210.0 547.6,230.7 628.4,289.4 678.3,375.8 688.7,475.1 657.8,570.0 591.1,644.2 499.9,684.8 400.1,684.8 308.9,644.2 242.2,570.0 211.3,475.1 221.7,375.8 271.6,289.4 352.4,230.7" stroke-width="1"/>
<polygon points="450.0,165.0 565.9,189.6 661.8,259.3 721.1,361.9 733.4,479.8 696.8,592.5 617.5,680.6 509.3,728.8 390.7,728.8 282.5,680.6 203.2,592.5 166.6,479.8 178.9,361.9 238.2,259.3 334.1,189.6" stroke-width="1"/>
</g>
<g stroke="#b8aa90" stroke-width="1">
<line x1="450" y1="450" x2="450.0" y2="150.0"/>
<line x1="450" y1="450" x2="572.0" y2="175.9"/>
<line x1="450" y1="450" x2="672.9" y2="249.3"/>
<line x1="450" y1="450" x2="735.3" y2="357.3"/>
<line x1="450" y1="450" x2="748.4" y2="481.4"/>
<line x1="450" y1="450" x2="709.8" y2="600.0"/>
<line x1="450" y1="450" x2="626.3" y2="692.7"/>
<line x1="450" y1="450" x2="512.4" y2="743.4"/>
<line x1="450" y1="450" x2="387.6" y2="743.4"/>
<line x1="450" y1="450" x2="273.7" y2="692.7"/>
<line x1="450" y1="450" x2="190.2" y2="600.0"/>
<line x1="450" y1="450" x2="151.6" y2="481.4"/>
<line x1="450" y1="450" x2="164.7" y2="357.3"/>
<line x1="450" y1="450" x2="227.1" y2="249.3"/>
<line x1="450" y1="450" x2="328.0" y2="175.9"/>
</g>
<polygon points="450.0,204.0 565.2,191.2 661.8,259.3 692.9,371.1 724.9,478.9 657.5,569.8 590.9,643.9 497.1,671.4 396.7,700.8 301.7,654.1 249.2,565.9 222.0,474.0 235.9,380.4 301.2,316.1 425.6,395.2" fill="#c86b3c55" stroke="#9f4b1b" stroke-width="3"/>
<g fill="#9f4b1b">
<circle cx="450.0" cy="204.0" r="4.5"/>
<circle cx="565.2" cy="191.2" r="4.5"/>
<circle cx="661.8" cy="259.3" r="4.5"/>
<circle cx="692.9" cy="371.1" r="4.5"/>
<circle cx="724.9" cy="478.9" r="4.5"/>
<circle cx="657.5" cy="569.8" r="4.5"/>
<circle cx="590.9" cy="643.9" r="4.5"/>
<circle cx="497.1" cy="671.4" r="4.5"/>
<circle cx="396.7" cy="700.8" r="4.5"/>
<circle cx="301.7" cy="654.1" r="4.5"/>
<circle cx="249.2" cy="565.9" r="4.5"/>
<circle cx="222.0" cy="474.0" r="4.5"/>
<circle cx="235.9" cy="380.4" r="4.5"/>
<circle cx="301.2" cy="316.1" r="4.5"/>
<circle cx="425.6" cy="395.2" r="4.5"/>
</g>
<g font-family="Georgia, serif" font-size="18" fill="#3f3426">
<text x="450.0" y="98.0" text-anchor="middle">MT19937</text>
<text x="450.0" y="118.0" text-anchor="middle" font-size="14" fill="#7a6850">208.8 MW/s</text>
<text x="593.2" y="128.4" text-anchor="start">Xorshift64</text>
<text x="593.2" y="148.4" text-anchor="start" font-size="14" fill="#7a6850">643.9 MW/s</text>
<text x="711.6" y="214.5" text-anchor="start">Xorshift32</text>
<text x="711.6" y="234.5" text-anchor="start" font-size="14" fill="#7a6850">678.4 MW/s</text>
<text x="784.8" y="341.2" text-anchor="start">SysV rand</text>
<text x="784.8" y="361.2" text-anchor="start" font-size="14" fill="#7a6850">277.2 MW/s</text>
<text x="800.1" y="486.8" text-anchor="start">mrand48</text>
<text x="800.1" y="506.8" text-anchor="start" font-size="14" fill="#7a6850">522.9 MW/s</text>
<text x="754.8" y="626.0" text-anchor="start">BSD random</text>
<text x="754.8" y="646.0" text-anchor="start" font-size="14" fill="#7a6850">171.9 MW/s</text>
<text x="656.9" y="734.8" text-anchor="start">glibc random</text>
<text x="656.9" y="754.8" text-anchor="start" font-size="14" fill="#7a6850">172 MW/s</text>
<text x="523.2" y="794.3" text-anchor="middle">FreeBSD rand_r</text>
<text x="523.2" y="814.3" text-anchor="middle" font-size="14" fill="#7a6850">115.1 MW/s</text>
<text x="376.8" y="794.3" text-anchor="middle">Win CRT rand</text>
<text x="376.8" y="814.3" text-anchor="middle" font-size="14" fill="#7a6850">285.7 MW/s</text>
<text x="243.1" y="734.8" text-anchor="end">VB6 Rnd</text>
<text x="243.1" y="754.8" text-anchor="end" font-size="14" fill="#7a6850">251.9 MW/s</text>
<text x="145.2" y="626.0" text-anchor="end">.NET Random</text>
<text x="145.2" y="646.0" text-anchor="end" font-size="14" fill="#7a6850">136.1 MW/s</text>
<text x="99.9" y="486.8" text-anchor="end">ANSI C LCG</text>
<text x="99.9" y="506.8" text-anchor="end" font-size="14" fill="#7a6850">125.6 MW/s</text>
<text x="115.2" y="341.2" text-anchor="end">MINSTD</text>
<text x="115.2" y="361.2" text-anchor="end" font-size="14" fill="#7a6850">110.9 MW/s</text>
<text x="188.4" y="214.5" text-anchor="end">AES-CTR</text>
<text x="188.4" y="234.5" text-anchor="end" font-size="14" fill="#7a6850">52.16 MW/s</text>
<text x="306.8" y="128.4" text-anchor="end">CtrDrbgAes256</text>
<text x="306.8" y="148.4" text-anchor="end" font-size="14" fill="#7a6850">0.7516 MW/s</text>
</g>
<text x="450" y="52" text-anchor="middle" font-family="Georgia, serif" font-size="28" fill="#2f2418">Pilot Throughput (log-normalized)</text>
<text x="450" y="82" text-anchor="middle" font-family="Georgia, serif" font-size="16" fill="#6f5d46">darby.local · preset=normal · excluded: OsRng, BBS, Blum-Micali</text>
</svg>