<svg xmlns="http://www.w3.org/2000/svg" width="900" height="900" viewBox="0 0 900 900">
<rect width="100%" height="100%" fill="#f6f1e8"/>
<g stroke="#d8cdb8" fill="none">
<polygon points="450.0,345.0 502.5,359.1 540.9,397.5 555.0,450.0 540.9,502.5 502.5,540.9 450.0,555.0 397.5,540.9 359.1,502.5 345.0,450.0 359.1,397.5 397.5,359.1" stroke-width="1"/>
<polygon points="450.0,300.0 525.0,320.1 579.9,375.0 600.0,450.0 579.9,525.0 525.0,579.9 450.0,600.0 375.0,579.9 320.1,525.0 300.0,450.0 320.1,375.0 375.0,320.1" stroke-width="1"/>
<polygon points="450.0,255.0 547.5,281.1 618.9,352.5 645.0,450.0 618.9,547.5 547.5,618.9 450.0,645.0 352.5,618.9 281.1,547.5 255.0,450.0 281.1,352.5 352.5,281.1" stroke-width="1"/>
<polygon points="450.0,210.0 570.0,242.2 657.8,330.0 690.0,450.0 657.8,570.0 570.0,657.8 450.0,690.0 330.0,657.8 242.2,570.0 210.0,450.0 242.2,330.0 330.0,242.2" stroke-width="1"/>
<polygon points="450.0,165.0 592.5,203.2 696.8,307.5 735.0,450.0 696.8,592.5 592.5,696.8 450.0,735.0 307.5,696.8 203.2,592.5 165.0,450.0 203.2,307.5 307.5,203.2" stroke-width="1"/>
</g>
<g font-family="Georgia, serif" font-size="11" fill="#9a8470" text-anchor="middle">
<text x="468.0" y="349.0" text-anchor="start">1.38 MW/s</text>
<text x="468.0" y="304.0" text-anchor="start">5.641 MW/s</text>
<text x="468.0" y="259.0" text-anchor="start">23.06 MW/s</text>
<text x="468.0" y="214.0" text-anchor="start">94.23 MW/s</text>
<text x="468.0" y="169.0" text-anchor="start">385.1 MW/s</text>
</g>
<g stroke="#b8aa90" stroke-width="1">
<line x1="450" y1="450" x2="450.0" y2="150.0"/>
<line x1="450" y1="450" x2="600.0" y2="190.2"/>
<line x1="450" y1="450" x2="709.8" y2="300.0"/>
<line x1="450" y1="450" x2="750.0" y2="450.0"/>
<line x1="450" y1="450" x2="709.8" y2="600.0"/>
<line x1="450" y1="450" x2="600.0" y2="709.8"/>
<line x1="450" y1="450" x2="450.0" y2="750.0"/>
<line x1="450" y1="450" x2="300.0" y2="709.8"/>
<line x1="450" y1="450" x2="190.2" y2="600.0"/>
<line x1="450" y1="450" x2="150.0" y2="450.0"/>
<line x1="450" y1="450" x2="190.2" y2="300.0"/>
<line x1="450" y1="450" x2="300.0" y2="190.2"/>
</g>
<polygon points="450.0,180.2 581.1,222.9 674.3,320.5 711.9,450.0 668.4,576.1 552.8,628.1 450.0,676.3 362.5,601.6 335.6,516.0 334.9,450.0 363.1,399.9 415.0,389.4" fill="#3c6bb855" stroke="#1b4b9f" stroke-width="3"/>
<g>
<circle cx="450.0" cy="180.2" r="4.5" fill="#1b4b9f"/>
<circle cx="581.1" cy="222.9" r="4.5" fill="#1b4b9f"/>
<circle cx="674.3" cy="320.5" r="4.5" fill="#1b4b9f"/>
<circle cx="711.9" cy="450.0" r="4.5" fill="#1b4b9f"/>
<circle cx="668.4" cy="576.1" r="4.5" fill="#1b4b9f"/>
<circle cx="552.8" cy="628.1" r="4.5" fill="#1b4b9f"/>
<circle cx="450.0" cy="676.3" r="4.5" fill="#1b4b9f"/>
<circle cx="362.5" cy="601.6" r="4.5" fill="#1b4b9f"/>
<circle cx="335.6" cy="516.0" r="4.5" fill="#1b4b9f"/>
<circle cx="334.9" cy="450.0" r="4.5" fill="#1b4b9f"/>
<circle cx="363.1" cy="399.9" r="4.5" fill="#1b4b9f"/>
<circle cx="415.0" cy="389.4" r="4.5" fill="#1b4b9f"/>
</g>
<polygon points="450.0,251.6 579.7,225.4 655.9,331.1 689.8,450.0 646.9,563.7 548.3,620.2 450.0,661.4 370.7,587.3 349.2,508.2 351.6,450.0 362.5,399.5 428.6,412.9" fill="#b83c3c55" stroke="#9f1b1b" stroke-width="3"/>
<g>
<circle cx="450.0" cy="251.6" r="4.5" fill="#9f1b1b"/>
<circle cx="579.7" cy="225.4" r="4.5" fill="#9f1b1b"/>
<circle cx="655.9" cy="331.1" r="4.5" fill="#9f1b1b"/>
<circle cx="689.8" cy="450.0" r="4.5" fill="#9f1b1b"/>
<circle cx="646.9" cy="563.7" r="4.5" fill="#9f1b1b"/>
<circle cx="548.3" cy="620.2" r="4.5" fill="#9f1b1b"/>
<circle cx="450.0" cy="661.4" r="4.5" fill="#9f1b1b"/>
<circle cx="370.7" cy="587.3" r="4.5" fill="#9f1b1b"/>
<circle cx="349.2" cy="508.2" r="4.5" fill="#9f1b1b"/>
<circle cx="351.6" cy="450.0" r="4.5" fill="#9f1b1b"/>
<circle cx="362.5" cy="399.5" r="4.5" fill="#9f1b1b"/>
<circle cx="428.6" cy="412.9" r="4.5" fill="#9f1b1b"/>
</g>
<g font-family="Georgia, serif" font-size="17" fill="#3f3426">
<text x="450.0" y="108.0" text-anchor="middle">Squidward</text>
<text x="450.0" y="126.0" text-anchor="middle" font-size="13" fill="#7a6850">239.6 MW/s</text>
<text x="618.0" y="166.2" text-anchor="start">FreeBSD rand_r</text>
<text x="618.0" y="184.2" text-anchor="start" font-size="13" fill="#7a6850">189.1 MW/s</text>
<text x="731.8" y="280.0" text-anchor="start">ChaCha20</text>
<text x="731.8" y="298.0" text-anchor="start" font-size="13" fill="#7a6850">170.7 MW/s</text>
<text x="758.0" y="440.0" text-anchor="start">ANSI C LCG</text>
<text x="758.0" y="458.0" text-anchor="start" font-size="13" fill="#7a6850">186.7 MW/s</text>
<text x="731.8" y="614.0" text-anchor="start">AES-128-CTR</text>
<text x="731.8" y="632.0" text-anchor="start" font-size="13" fill="#7a6850">137.8 MW/s</text>
<text x="618.0" y="725.8" text-anchor="start">SpongeBob</text>
<text x="618.0" y="743.8" text-anchor="start" font-size="13" fill="#7a6850">32.22 MW/s</text>
<text x="450.0" y="778.0" text-anchor="middle">BBS</text>
<text x="450.0" y="796.0" text-anchor="middle" font-size="13" fill="#7a6850">61.29 MW/s</text>
<text x="282.0" y="725.8" text-anchor="end">Hash_DRBG</text>
<text x="282.0" y="743.8" text-anchor="end" font-size="13" fill="#7a6850">12.37 MW/s</text>
<text x="168.2" y="607.0" text-anchor="end">HMAC_DRBG</text>
<text x="168.2" y="625.0" text-anchor="end" font-size="13" fill="#7a6850">3.218 MW/s</text>
<text x="142.0" y="440.0" text-anchor="end">CtrDrbgAes256</text>
<text x="142.0" y="458.0" text-anchor="end" font-size="13" fill="#7a6850">1.893 MW/s</text>
<text x="168.2" y="280.0" text-anchor="end">OsRng</text>
<text x="168.2" y="298.0" text-anchor="end" font-size="13" fill="#7a6850">1.191 MW/s</text>
<text x="282.0" y="162.2" text-anchor="end">Blum-Micali</text>
<text x="282.0" y="180.2" text-anchor="end" font-size="13" fill="#7a6850">0.462 MW/s</text>
</g>
<g font-family="Georgia, serif" font-size="14" fill="#3f3426">
<rect x="30" y="814" width="18" height="14" fill="#3c6bb855" stroke="#1b4b9f" stroke-width="2"/>
<text x="54" y="826">Dyson (Apple M4 aarch64)</text>
<rect x="30" y="836" width="18" height="14" fill="#b83c3c55" stroke="#9f1b1b" stroke-width="2"/>
<text x="54" y="848">dmz.lan (Intel i5 x86_64)</text>
</g>
<text x="450" y="52" text-anchor="middle" font-family="Georgia, serif" font-size="22" fill="#2f2418">Throughput — Slow Generators (log-normalized)</text>
<text x="450" y="76" text-anchor="middle" font-family="Georgia, serif" font-size="14" fill="#6f5d46">dyson · dmz · pilot-bench normal preset</text>
</svg>
