<svg xmlns="http://www.w3.org/2000/svg" width="900" height="900" viewBox="0 0 900 900">
<rect width="100%" height="100%" fill="#f6f1e8"/>
<!-- grid rings at r=105,150,195,240,285 — 12 spokes, 30° apart -->
<g stroke="#d8cdb8" fill="none">
<polygon points="450.0,345.0 502.5,359.1 540.9,397.5 555.0,450.0 540.9,502.5 502.5,540.9 450.0,555.0 397.5,540.9 359.1,502.5 345.0,450.0 359.1,397.5 397.5,359.1" stroke-width="1"/>
<polygon points="450.0,300.0 525.0,320.1 580.0,375.0 600.0,450.0 580.0,525.0 525.0,580.0 450.0,600.0 375.0,580.0 320.0,525.0 300.0,450.0 320.0,375.0 375.0,320.0" stroke-width="1"/>
<polygon points="450.0,255.0 547.5,281.1 618.9,352.5 645.0,450.0 618.9,547.5 547.5,618.9 450.0,645.0 352.5,618.9 281.1,547.5 255.0,450.0 281.1,352.5 352.5,281.1" stroke-width="1"/>
<polygon points="450.0,210.0 570.0,242.2 657.8,330.0 690.0,450.0 657.8,570.0 570.0,657.8 450.0,690.0 330.0,657.8 242.2,570.0 210.0,450.0 242.2,330.0 330.0,242.2" stroke-width="1"/>
<polygon points="450.0,165.0 592.5,203.2 696.8,307.5 735.0,450.0 696.8,592.5 592.5,696.8 450.0,735.0 307.5,696.8 203.2,592.5 165.0,450.0 203.2,307.5 307.5,203.2" stroke-width="1"/>
</g>
<!-- spokes -->
<g stroke="#b8aa90" stroke-width="1">
<line x1="450" y1="450" x2="450.0" y2="150.0"/>
<line x1="450" y1="450" x2="600.0" y2="190.2"/>
<line x1="450" y1="450" x2="709.8" y2="300.0"/>
<line x1="450" y1="450" x2="750.0" y2="450.0"/>
<line x1="450" y1="450" x2="709.8" y2="600.0"/>
<line x1="450" y1="450" x2="600.0" y2="709.8"/>
<line x1="450" y1="450" x2="450.0" y2="750.0"/>
<line x1="450" y1="450" x2="300.0" y2="709.8"/>
<line x1="450" y1="450" x2="190.2" y2="600.0"/>
<line x1="450" y1="450" x2="150.0" y2="450.0"/>
<line x1="450" y1="450" x2="190.2" y2="300.0"/>
<line x1="450" y1="450" x2="300.0" y2="190.2"/>
</g>
<!-- data polygon: JSF64 SFC64 Xoshiro256** Xoroshiro128** PCG32 WyRand PCG64 Squidward ChaCha20 SpongeBob Hash_DRBG HMAC_DRBG -->
<!-- radii (log-normalized same scale as original): 281.7 280.7 280.0 277.2 263.6 262.3 230.3 216.2 205.3 148.6 124.0 80.5 -->
<polygon points="450.0,168.3 590.4,206.9 692.5,310.0 727.2,450.0 678.3,581.8 581.2,677.2 450.0,680.3 341.9,637.2 272.2,552.7 301.4,450.0 342.6,388.0 409.8,380.3" fill="#3c6bb855" stroke="#1b4b9f" stroke-width="3"/>
<g fill="#1b4b9f">
<circle cx="450.0" cy="168.3" r="4.5"/>
<circle cx="590.4" cy="206.9" r="4.5"/>
<circle cx="692.5" cy="310.0" r="4.5"/>
<circle cx="727.2" cy="450.0" r="4.5"/>
<circle cx="678.3" cy="581.8" r="4.5"/>
<circle cx="581.2" cy="677.2" r="4.5"/>
<circle cx="450.0" cy="680.3" r="4.5"/>
<circle cx="341.9" cy="637.2" r="4.5"/>
<circle cx="272.2" cy="552.7" r="4.5"/>
<circle cx="301.4" cy="450.0" r="4.5"/>
<circle cx="342.6" cy="388.0" r="4.5"/>
<circle cx="409.8" cy="380.3" r="4.5"/>
</g>
<!-- labels -->
<g font-family="Georgia, serif" font-size="17" fill="#3f3426">
<text x="450.0" y="108.0" text-anchor="middle">JSF64</text>
<text x="450.0" y="128.0" text-anchor="middle" font-size="13" fill="#7a6850">615 MW/s</text>
<text x="618.0" y="166.0" text-anchor="start">SFC64</text>
<text x="618.0" y="184.0" text-anchor="start" font-size="13" fill="#7a6850">597 MW/s</text>
<text x="732.0" y="280.0" text-anchor="start">Xoshiro256**</text>
<text x="732.0" y="298.0" text-anchor="start" font-size="13" fill="#7a6850">583 MW/s</text>
<text x="758.0" y="440.0" text-anchor="start">Xoroshiro128**</text>
<text x="758.0" y="458.0" text-anchor="start" font-size="13" fill="#7a6850">537 MW/s</text>
<text x="732.0" y="614.0" text-anchor="start">PCG32</text>
<text x="732.0" y="632.0" text-anchor="start" font-size="13" fill="#7a6850">356 MW/s</text>
<text x="618.0" y="726.0" text-anchor="start">WyRand</text>
<text x="618.0" y="744.0" text-anchor="start" font-size="13" fill="#7a6850">342 MW/s</text>
<text x="450.0" y="770.0" text-anchor="middle">PCG64</text>
<text x="450.0" y="788.0" text-anchor="middle" font-size="13" fill="#7a6850">130 MW/s</text>
<text x="282.0" y="726.0" text-anchor="end">Squidward</text>
<text x="282.0" y="744.0" text-anchor="end" font-size="13" fill="#7a6850">85 MW/s</text>
<text x="168.0" y="607.0" text-anchor="end">ChaCha20</text>
<text x="168.0" y="625.0" text-anchor="end" font-size="13" fill="#7a6850">61 MW/s</text>
<text x="142.0" y="440.0" text-anchor="end">SpongeBob</text>
<text x="142.0" y="458.0" text-anchor="end" font-size="13" fill="#7a6850">10.97 MW/s</text>
<text x="168.0" y="280.0" text-anchor="end">Hash_DRBG</text>
<text x="168.0" y="298.0" text-anchor="end" font-size="13" fill="#7a6850">5.21 MW/s</text>
<text x="282.0" y="162.0" text-anchor="end">HMAC_DRBG</text>
<text x="282.0" y="180.0" text-anchor="end" font-size="13" fill="#7a6850">1.41 MW/s</text>
</g>
<text x="450" y="52" text-anchor="middle" font-family="Georgia, serif" font-size="24" fill="#2f2418">Pilot Throughput — New Generators (log-normalized)</text>
<text x="450" y="78" text-anchor="middle" font-family="Georgia, serif" font-size="15" fill="#6f5d46">darby.lan · ARM aarch64 · same scale as original radar</text>
</svg>
