<svg xmlns="http://www.w3.org/2000/svg" viewBox="0 0 920 900" width="920" height="900" role="img" aria-labelledby="title desc">
  <title id="title">Entropy pilot throughput radar</title>
  <desc id="desc">Radar chart of normalized log10 throughput for the Darby normal-preset Pilot run.</desc>
  <defs><style>
    .bg { fill: #f6f3ec; }
    .grid { fill: none; stroke: #d6c8b6; stroke-width: 1.2; }
    .axis { stroke: #b9a58f; stroke-width: 1; }
    .shape { fill: rgba(176, 76, 47, 0.20); stroke: #b04c2f; stroke-width: 3; }
    .dot { fill: #8f311d; }
    .title { fill: #2b2118; font: 700 30px Georgia, serif; }
    .subtitle { fill: #5d4d3d; font: 15px Georgia, serif; }
    .ring { fill: #6b5a47; font: 12px Georgia, serif; }
    .num { fill: #2f2418; font: 700 14px Georgia, serif; }
    .legend { fill: #2f2418; font: 14px Georgia, serif; }
    .foot { fill: #6b5a47; font: 13px Georgia, serif; }
  </style></defs>
  <rect class="bg" x="0" y="0" width="920" height="900" rx="22" />
  <text class="title" x="460" y="44" text-anchor="middle">Pilot Throughput Radar</text>
  <text class="subtitle" x="460" y="70" text-anchor="middle">Darby ARM64, Pilot normal preset, normalized log10(MW/s)</text>
  <polygon class="grid" points="460.0,240.0 503.3,248.1 540.8,271.3 567.4,306.5 579.5,348.9 575.4,392.8 555.8,432.3 523.2,462.0 482.0,478.0 438.0,478.0 396.8,462.0 364.2,432.3 344.6,392.8 340.5,348.9 352.6,306.5 379.2,271.3 416.7,248.1" />
  <text class="ring" x="460" y="248.0" text-anchor="middle">20%</text>
  <polygon class="grid" points="460.0,210.0 514.2,220.1 561.1,249.1 594.3,293.1 609.4,346.2 604.3,401.0 579.7,450.4 539.0,487.5 487.6,507.4 432.4,507.4 381.0,487.5 340.3,450.4 315.7,401.0 310.6,346.2 325.7,293.1 358.9,249.1 405.8,220.1" />
  <text class="ring" x="460" y="218.0" text-anchor="middle">40%</text>
  <polygon class="grid" points="460.0,180.0 525.0,192.2 581.3,227.0 621.1,279.8 639.2,343.4 633.1,409.3 603.6,468.5 554.8,513.0 493.1,536.9 426.9,536.9 365.2,513.0 316.4,468.5 286.9,409.3 280.8,343.4 298.9,279.8 338.7,227.0 395.0,192.2" />
  <text class="ring" x="460" y="188.0" text-anchor="middle">60%</text>
  <polygon class="grid" points="460.0,150.0 535.9,164.2 601.5,204.8 648.0,266.4 669.1,340.6 662.0,417.5 627.6,486.6 570.6,538.5 498.6,566.4 421.4,566.4 349.4,538.5 292.4,486.6 258.0,417.5 250.9,340.6 272.0,266.4 318.5,204.8 384.1,164.2" />
  <text class="ring" x="460" y="158.0" text-anchor="middle">80%</text>
  <polygon class="grid" points="460.0,120.0 546.7,136.2 621.7,182.6 674.8,253.0 699.0,337.9 690.8,425.7 651.5,504.6 586.3,564.1 504.1,595.9 415.9,595.9 333.7,564.1 268.5,504.6 229.2,425.7 221.0,337.9 245.2,253.0 298.3,182.6 373.3,136.2" />
  <text class="ring" x="460" y="128.0" text-anchor="middle">100%</text>
  <line class="axis" x1="460" y1="360" x2="460.0" y2="120.0" />
  <text class="num" x="460.0" y="92.0" text-anchor="middle">1</text>
  <line class="axis" x1="460" y1="360" x2="546.7" y2="136.2" />
  <text class="num" x="556.8" y="110.1" text-anchor="middle">2</text>
  <line class="axis" x1="460" y1="360" x2="621.7" y2="182.6" />
  <text class="num" x="640.6" y="161.9" text-anchor="middle">3</text>
  <line class="axis" x1="460" y1="360" x2="674.8" y2="253.0" />
  <text class="num" x="699.9" y="240.5" text-anchor="middle">4</text>
  <line class="axis" x1="460" y1="360" x2="699.0" y2="337.9" />
  <text class="num" x="726.9" y="335.3" text-anchor="middle">5</text>
  <line class="axis" x1="460" y1="360" x2="690.8" y2="425.7" />
  <text class="num" x="717.8" y="433.3" text-anchor="middle">6</text>
  <line class="axis" x1="460" y1="360" x2="651.5" y2="504.6" />
  <text class="num" x="673.9" y="521.5" text-anchor="middle">7</text>
  <line class="axis" x1="460" y1="360" x2="586.3" y2="564.1" />
  <text class="num" x="601.1" y="587.9" text-anchor="middle">8</text>
  <line class="axis" x1="460" y1="360" x2="504.1" y2="595.9" />
  <text class="num" x="509.2" y="623.4" text-anchor="middle">9</text>
  <line class="axis" x1="460" y1="360" x2="415.9" y2="595.9" />
  <text class="num" x="410.8" y="623.4" text-anchor="middle">10</text>
  <line class="axis" x1="460" y1="360" x2="333.7" y2="564.1" />
  <text class="num" x="318.9" y="587.9" text-anchor="middle">11</text>
  <line class="axis" x1="460" y1="360" x2="268.5" y2="504.6" />
  <text class="num" x="246.1" y="521.5" text-anchor="middle">12</text>
  <line class="axis" x1="460" y1="360" x2="229.2" y2="425.7" />
  <text class="num" x="202.2" y="433.3" text-anchor="middle">13</text>
  <line class="axis" x1="460" y1="360" x2="221.0" y2="337.9" />
  <text class="num" x="193.1" y="335.3" text-anchor="middle">14</text>
  <line class="axis" x1="460" y1="360" x2="245.2" y2="253.0" />
  <text class="num" x="220.1" y="240.5" text-anchor="middle">15</text>
  <line class="axis" x1="460" y1="360" x2="298.3" y2="182.6" />
  <text class="num" x="279.4" y="161.9" text-anchor="middle">16</text>
  <line class="axis" x1="460" y1="360" x2="373.3" y2="136.2" />
  <text class="num" x="363.2" y="110.1" text-anchor="middle">17</text>
  <polygon class="shape" points="460.0,176.6 533.2,171.0 597.3,209.4 629.8,275.4 659.2,341.5 634.2,409.6 604.5,469.1 551.9,508.4 494.9,546.4 425.5,544.3 366.5,511.1 319.4,466.2 293.1,407.5 300.1,345.2 379.4,319.9 298.3,182.7 373.3,136.2" />
  <circle class="dot" cx="460.0" cy="176.6" r="4" />
  <circle class="dot" cx="533.2" cy="171.0" r="4" />
  <circle class="dot" cx="597.3" cy="209.4" r="4" />
  <circle class="dot" cx="629.8" cy="275.4" r="4" />
  <circle class="dot" cx="659.2" cy="341.5" r="4" />
  <circle class="dot" cx="634.2" cy="409.6" r="4" />
  <circle class="dot" cx="604.5" cy="469.1" r="4" />
  <circle class="dot" cx="551.9" cy="508.4" r="4" />
  <circle class="dot" cx="494.9" cy="546.4" r="4" />
  <circle class="dot" cx="425.5" cy="544.3" r="4" />
  <circle class="dot" cx="366.5" cy="511.1" r="4" />
  <circle class="dot" cx="319.4" cy="466.2" r="4" />
  <circle class="dot" cx="293.1" cy="407.5" r="4" />
  <circle class="dot" cx="300.1" cy="345.2" r="4" />
  <circle class="dot" cx="379.4" cy="319.9" r="4" />
  <circle class="dot" cx="298.3" cy="182.7" r="4" />
  <circle class="dot" cx="373.3" cy="136.2" r="4" />
  <text class="legend" x="90" y="640">1. MT19937 (210.2 MW/s)</text>
  <text class="legend" x="90" y="664">2. Xorshift64 (673.3 MW/s)</text>
  <text class="legend" x="90" y="688">3. Xorshift32 (719.6 MW/s)</text>
  <text class="legend" x="90" y="712">4. SysV rand() (307.9 MW/s)</text>
  <text class="legend" x="90" y="736">5. SysV mrand48() (573.7 MW/s)</text>
  <text class="legend" x="90" y="760">6. BSD random() (183.5 MW/s)</text>
  <text class="legend" x="90" y="784">7. glibc rand/random() (182.8 MW/s)</text>
  <text class="legend" x="90" y="808">8. FreeBSD rand_r() (123.3 MW/s)</text>
  <text class="legend" x="90" y="832">9. Windows CRT rand() (307.6 MW/s)</text>
  <text class="legend" x="390" y="640">10. Windows VB6 Rnd() (269.6 MW/s)</text>
  <text class="legend" x="390" y="664">11. .NET Random(seed) (149.5 MW/s)</text>
  <text class="legend" x="390" y="688">12. ANSI C LCG (137 MW/s)</text>
  <text class="legend" x="390" y="712">13. MINSTD (116.2 MW/s)</text>
  <text class="legend" x="390" y="736">14. AES-128-CTR (53.33 MW/s)</text>
  <text class="legend" x="390" y="760">15. CtrDrbgAes256 (0.7594 MW/s)</text>
  <text class="legend" x="390" y="784">16. Constant (6356 MW/s)</text>
  <text class="legend" x="390" y="808">17. Counter (6376 MW/s)</text>
  <text class="foot" x="460" y="872" text-anchor="middle">Inner radius corresponds to the slowest measured generator (0.7594 MW/s); outer radius to the fastest (6376 MW/s).</text>
</svg>
