<svg xmlns="http://www.w3.org/2000/svg" width="900" height="900" viewBox="0 0 900 900">
<rect width="100%" height="100%" fill="#f6f1e8"/>
<g stroke="#d8cdb8" fill="none">
<polygon points="450.0,345.0 511.7,365.1 549.9,417.6 549.9,482.4 511.7,534.9 450.0,555.0 388.3,534.9 350.1,482.4 350.1,417.6 388.3,365.1" stroke-width="1"/>
<polygon points="450.0,300.0 538.2,328.6 592.7,403.6 592.7,496.4 538.2,571.4 450.0,600.0 361.8,571.4 307.3,496.4 307.3,403.6 361.8,328.6" stroke-width="1"/>
<polygon points="450.0,255.0 564.6,292.2 635.5,389.7 635.5,510.3 564.6,607.8 450.0,645.0 335.4,607.8 264.5,510.3 264.5,389.7 335.4,292.2" stroke-width="1"/>
<polygon points="450.0,210.0 591.1,255.8 678.3,375.8 678.3,524.2 591.1,644.2 450.0,690.0 308.9,644.2 221.7,524.2 221.7,375.8 308.9,255.8" stroke-width="1"/>
<polygon points="450.0,165.0 617.5,219.4 721.1,361.9 721.1,538.1 617.5,680.6 450.0,735.0 282.5,680.6 178.9,538.1 178.9,361.9 282.5,219.4" stroke-width="1"/>
</g>
<g font-family="Georgia, serif" font-size="11" fill="#9a8470" text-anchor="middle">
<text x="468.0" y="349.0" text-anchor="start">3.015 MW/s</text>
<text x="468.0" y="304.0" text-anchor="start">9.947 MW/s</text>
<text x="468.0" y="259.0" text-anchor="start">32.82 MW/s</text>
<text x="468.0" y="214.0" text-anchor="start">108.3 MW/s</text>
<text x="468.0" y="169.0" text-anchor="start">357.3 MW/s</text>
</g>
<g stroke="#b8aa90" stroke-width="1">
<line x1="450" y1="450" x2="450.0" y2="150.0"/>
<line x1="450" y1="450" x2="626.3" y2="207.3"/>
<line x1="450" y1="450" x2="735.3" y2="357.3"/>
<line x1="450" y1="450" x2="735.3" y2="542.7"/>
<line x1="450" y1="450" x2="626.3" y2="692.7"/>
<line x1="450" y1="450" x2="450.0" y2="750.0"/>
<line x1="450" y1="450" x2="273.7" y2="692.7"/>
<line x1="450" y1="450" x2="164.7" y2="542.7"/>
<line x1="450" y1="450" x2="164.7" y2="357.3"/>
<line x1="450" y1="450" x2="273.7" y2="207.3"/>
</g>
<polygon points="450.0,180.1 603.4,238.8 694.6,370.5 697.8,530.5 596.4,651.5 450.0,644.3 357.0,578.0 347.8,483.2 366.8,423.0 408.9,393.4" fill="#3c6bb855" stroke="#1b4b9f" stroke-width="3"/>
<g>
<circle cx="450.0" cy="180.1" r="4.5" fill="#1b4b9f"/>
<circle cx="603.4" cy="238.8" r="4.5" fill="#1b4b9f"/>
<circle cx="694.6" cy="370.5" r="4.5" fill="#1b4b9f"/>
<circle cx="697.8" cy="530.5" r="4.5" fill="#1b4b9f"/>
<circle cx="596.4" cy="651.5" r="4.5" fill="#1b4b9f"/>
<circle cx="450.0" cy="644.3" r="4.5" fill="#1b4b9f"/>
<circle cx="357.0" cy="578.0" r="4.5" fill="#1b4b9f"/>
<circle cx="347.8" cy="483.2" r="4.5" fill="#1b4b9f"/>
<circle cx="366.8" cy="423.0" r="4.5" fill="#1b4b9f"/>
<circle cx="408.9" cy="393.4" r="4.5" fill="#1b4b9f"/>
</g>
<polygon points="450.0,264.2 601.4,241.6 670.7,378.3 673.1,522.5 579.3,627.9 450.0,633.5 368.5,562.2 365.4,477.5 385.5,429.1 408.3,392.6" fill="#b83c3c55" stroke="#9f1b1b" stroke-width="3"/>
<g>
<circle cx="450.0" cy="264.2" r="4.5" fill="#9f1b1b"/>
<circle cx="601.4" cy="241.6" r="4.5" fill="#9f1b1b"/>
<circle cx="670.7" cy="378.3" r="4.5" fill="#9f1b1b"/>
<circle cx="673.1" cy="522.5" r="4.5" fill="#9f1b1b"/>
<circle cx="579.3" cy="627.9" r="4.5" fill="#9f1b1b"/>
<circle cx="450.0" cy="633.5" r="4.5" fill="#9f1b1b"/>
<circle cx="368.5" cy="562.2" r="4.5" fill="#9f1b1b"/>
<circle cx="365.4" cy="477.5" r="4.5" fill="#9f1b1b"/>
<circle cx="385.5" cy="429.1" r="4.5" fill="#9f1b1b"/>
<circle cx="408.3" cy="392.6" r="4.5" fill="#9f1b1b"/>
</g>
<g font-family="Georgia, serif" font-size="17" fill="#3f3426">
<text x="450.0" y="108.0" text-anchor="middle">Squidward</text>
<text x="450.0" y="126.0" text-anchor="middle" font-size="13" fill="#7a6850">239.6 MW/s</text>
<text x="644.3" y="181.3" text-anchor="start">FreeBSD rand_r</text>
<text x="644.3" y="199.3" text-anchor="start" font-size="13" fill="#7a6850">189.1 MW/s</text>
<text x="757.3" y="343.3" text-anchor="start">ChaCha20</text>
<text x="757.3" y="361.3" text-anchor="start" font-size="13" fill="#7a6850">170.7 MW/s</text>
<text x="757.3" y="550.7" text-anchor="start">ANSI C LCG</text>
<text x="757.3" y="568.7" text-anchor="start" font-size="13" fill="#7a6850">186.7 MW/s</text>
<text x="644.3" y="714.7" text-anchor="start">AES-128-CTR</text>
<text x="644.3" y="732.7" text-anchor="start" font-size="13" fill="#7a6850">137.8 MW/s</text>
<text x="450.0" y="782.0" text-anchor="middle">SpongeBob</text>
<text x="450.0" y="800.0" text-anchor="middle" font-size="13" fill="#7a6850">32.22 MW/s</text>
<text x="255.7" y="714.7" text-anchor="end">Hash_DRBG</text>
<text x="255.7" y="732.7" text-anchor="end" font-size="13" fill="#7a6850">12.37 MW/s</text>
<text x="142.7" y="546.7" text-anchor="end">HMAC_DRBG</text>
<text x="142.7" y="564.7" text-anchor="end" font-size="13" fill="#7a6850">3.218 MW/s</text>
<text x="142.7" y="343.3" text-anchor="end">CtrDrbgAes256</text>
<text x="142.7" y="361.3" text-anchor="end" font-size="13" fill="#7a6850">1.893 MW/s</text>
<text x="255.7" y="179.3" text-anchor="end">OsRng</text>
<text x="255.7" y="197.3" text-anchor="end" font-size="13" fill="#7a6850">1.191 MW/s</text>
</g>
<g font-family="Georgia, serif" font-size="14" fill="#3f3426">
<rect x="30" y="814" width="18" height="14" fill="#3c6bb855" stroke="#1b4b9f" stroke-width="2"/>
<text x="54" y="826">Dyson (Apple M4 aarch64)</text>
<rect x="30" y="836" width="18" height="14" fill="#b83c3c55" stroke="#9f1b1b" stroke-width="2"/>
<text x="54" y="848">dmz.lan (Intel i5 x86_64)</text>
</g>
<text x="450" y="52" text-anchor="middle" font-family="Georgia, serif" font-size="22" fill="#2f2418">Throughput — Slow Generators (log-normalized)</text>
<text x="450" y="76" text-anchor="middle" font-family="Georgia, serif" font-size="14" fill="#6f5d46">dyson · dmz · pilot-bench normal preset</text>
</svg>
