<svg xmlns="http://www.w3.org/2000/svg" width="900" height="900" viewBox="0 0 900 900">
<rect width="100%" height="100%" fill="#f6f1e8"/>
<!-- grid rings -->
<g stroke="#d8cdb8" fill="none">
<polygon points="450.0,345.0 502.5,359.1 540.9,397.5 555.0,450.0 540.9,502.5 502.5,540.9 450.0,555.0 397.5,540.9 359.1,502.5 345.0,450.0 359.1,397.5 397.5,359.1" stroke-width="1"/>
<polygon points="450.0,300.0 525.0,320.1 579.9,375.0 600.0,450.0 579.9,525.0 525.0,579.9 450.0,600.0 375.0,579.9 320.1,525.0 300.0,450.0 320.1,375.0 375.0,320.1" stroke-width="1"/>
<polygon points="450.0,255.0 547.5,281.1 618.9,352.5 645.0,450.0 618.9,547.5 547.5,618.9 450.0,645.0 352.5,618.9 281.1,547.5 255.0,450.0 281.1,352.5 352.5,281.1" stroke-width="1"/>
<polygon points="450.0,210.0 570.0,242.2 657.8,330.0 690.0,450.0 657.8,570.0 570.0,657.8 450.0,690.0 330.0,657.8 242.2,570.0 210.0,450.0 242.2,330.0 330.0,242.2" stroke-width="1"/>
<polygon points="450.0,165.0 592.5,203.2 696.8,307.5 735.0,450.0 696.8,592.5 592.5,696.8 450.0,735.0 307.5,696.8 203.2,592.5 165.0,450.0 203.2,307.5 307.5,203.2" stroke-width="1"/>
</g>
<!-- spokes -->
<g stroke="#b8aa90" stroke-width="1">
<line x1="450" y1="450" x2="450.0" y2="150.0"/>
<line x1="450" y1="450" x2="600.0" y2="190.2"/>
<line x1="450" y1="450" x2="709.8" y2="300.0"/>
<line x1="450" y1="450" x2="750.0" y2="450.0"/>
<line x1="450" y1="450" x2="709.8" y2="600.0"/>
<line x1="450" y1="450" x2="600.0" y2="709.8"/>
<line x1="450" y1="450" x2="450.0" y2="750.0"/>
<line x1="450" y1="450" x2="300.0" y2="709.8"/>
<line x1="450" y1="450" x2="190.2" y2="600.0"/>
<line x1="450" y1="450" x2="150.0" y2="450.0"/>
<line x1="450" y1="450" x2="190.2" y2="300.0"/>
<line x1="450" y1="450" x2="300.0" y2="190.2"/>
</g>
<!-- dyson polygon -->
<polygon points="450.0,201.0 573.9,235.4 665.1,325.8 687.9,450.0 656.9,569.4 587.4,687.9 450.0,685.8 350.8,621.8 286.9,544.2 311.3,450.0 354.5,394.9 414.9,389.2" fill="#3c6bb855" stroke="#1b4b9f" stroke-width="3"/>
<g fill="#1b4b9f">
<circle cx="450.0" cy="201.0" r="4.5"/>
<circle cx="573.9" cy="235.4" r="4.5"/>
<circle cx="665.1" cy="325.8" r="4.5"/>
<circle cx="687.9" cy="450.0" r="4.5"/>
<circle cx="656.9" cy="569.4" r="4.5"/>
<circle cx="587.4" cy="687.9" r="4.5"/>
<circle cx="450.0" cy="685.8" r="4.5"/>
<circle cx="350.8" cy="621.8" r="4.5"/>
<circle cx="286.9" cy="544.2" r="4.5"/>
<circle cx="311.3" cy="450.0" r="4.5"/>
<circle cx="354.5" cy="394.9" r="4.5"/>
<circle cx="414.9" cy="389.2" r="4.5"/>
</g>
<!-- dmz polygon -->
<polygon points="450.0,213.2 570.5,241.3 656.7,330.7 681.6,450.0 653.4,567.4 569.5,657.1 450.0,674.7 384.0,564.3 304.1,534.3 319.8,450.0 367.9,402.6 422.2,401.9" fill="#b83c3c55" stroke="#9f1b1b" stroke-width="3"/>
<g fill="#9f1b1b">
<circle cx="450.0" cy="213.2" r="4.5"/>
<circle cx="570.5" cy="241.3" r="4.5"/>
<circle cx="656.7" cy="330.7" r="4.5"/>
<circle cx="681.6" cy="450.0" r="4.5"/>
<circle cx="653.4" cy="567.4" r="4.5"/>
<circle cx="569.5" cy="657.1" r="4.5"/>
<circle cx="450.0" cy="674.7" r="4.5"/>
<circle cx="384.0" cy="564.3" r="4.5"/>
<circle cx="304.1" cy="534.3" r="4.5"/>
<circle cx="319.8" cy="450.0" r="4.5"/>
<circle cx="367.9" cy="402.6" r="4.5"/>
<circle cx="422.2" cy="401.9" r="4.5"/>
</g>
<!-- labels -->
<g font-family="Georgia, serif" font-size="17" fill="#3f3426">
<text x="450.0" y="108.0" text-anchor="middle">JSF64</text>
<text x="450.0" y="126.0" text-anchor="middle" font-size="13" fill="#7a6850">1314 MW/s</text>
<text x="618.0" y="166.2" text-anchor="start">SFC64</text>
<text x="618.0" y="184.2" text-anchor="start" font-size="13" fill="#7a6850">1262 MW/s</text>
<text x="731.8" y="280.0" text-anchor="start">Xoshiro256**</text>
<text x="731.8" y="298.0" text-anchor="start" font-size="13" fill="#7a6850">1287 MW/s</text>
<text x="758.0" y="440.0" text-anchor="start">Xoroshiro128**</text>
<text x="758.0" y="458.0" text-anchor="start" font-size="13" fill="#7a6850">902.8 MW/s</text>
<text x="731.8" y="614.0" text-anchor="start">PCG32</text>
<text x="731.8" y="632.0" text-anchor="start" font-size="13" fill="#7a6850">934.1 MW/s</text>
<text x="618.0" y="725.8" text-anchor="start">WyRand</text>
<text x="618.0" y="743.8" text-anchor="start" font-size="13" fill="#7a6850">3120 MW/s</text>
<text x="450.0" y="770.0" text-anchor="middle">PCG64</text>
<text x="450.0" y="788.0" text-anchor="middle" font-size="13" fill="#7a6850">843.8 MW/s</text>
<text x="282.0" y="725.8" text-anchor="end">Squidward</text>
<text x="282.0" y="743.8" text-anchor="end" font-size="13" fill="#7a6850">239.6 MW/s</text>
<text x="168.2" y="607.0" text-anchor="end">ChaCha20</text>
<text x="168.2" y="625.0" text-anchor="end" font-size="13" fill="#7a6850">170.7 MW/s</text>
<text x="142.0" y="440.0" text-anchor="end">SpongeBob</text>
<text x="142.0" y="458.0" text-anchor="end" font-size="13" fill="#7a6850">32.22 MW/s</text>
<text x="168.2" y="280.0" text-anchor="end">Hash_DRBG</text>
<text x="168.2" y="298.0" text-anchor="end" font-size="13" fill="#7a6850">12.37 MW/s</text>
<text x="282.0" y="162.2" text-anchor="end">HMAC_DRBG</text>
<text x="282.0" y="180.2" text-anchor="end" font-size="13" fill="#7a6850">3.218 MW/s</text>
</g>
<!-- legend -->
<g font-family="Georgia, serif" font-size="14" fill="#3f3426">
<rect x="30" y="814" width="18" height="14" fill="#3c6bb855" stroke="#1b4b9f" stroke-width="2"/>
<text x="54" y="826">Dyson (Apple M4 aarch64)</text>
<rect x="30" y="836" width="18" height="14" fill="#b83c3c55" stroke="#9f1b1b" stroke-width="2"/>
<text x="54" y="848">dmz.lan (Intel i5 x86_64)</text>
</g>
<text x="450" y="52" text-anchor="middle" font-family="Georgia, serif" font-size="24" fill="#2f2418">Pilot Throughput — New Generators (log-normalized)</text>
<text x="450" y="78" text-anchor="middle" font-family="Georgia, serif" font-size="15" fill="#6f5d46">dyson · dmz · pilot-bench normal preset</text>
</svg>
